<?xml version="1.0" standalone="no"?>
<svg xmlns:xlink="http://www.w3.org/1999/xlink" id="wave" style="transform:rotate(0deg); transition: 0.3s" viewBox="0 0 1440 490" version="1.1" xmlns="http://www.w3.org/2000/svg"><defs><linearGradient id="sw-gradient-0" x1="0" x2="0" y1="1" y2="0"><stop stop-color="rgba(27, 146, 220, 1)" offset="0%"/><stop stop-color="rgba(27, 146, 220, 1)" offset="100%"/></linearGradient></defs><path style="transform:translate(0, 0px); opacity:1" fill="url(#sw-gradient-0)" d="M0,343L40,343C80,343,160,343,240,310.3C320,278,400,212,480,204.2C560,196,640,245,720,253.2C800,261,880,229,960,187.8C1040,147,1120,98,1200,81.7C1280,65,1360,82,1440,114.3C1520,147,1600,196,1680,187.8C1760,180,1840,114,1920,122.5C2000,131,2080,212,2160,228.7C2240,245,2320,196,2400,196C2480,196,2560,245,2640,220.5C2720,196,2800,98,2880,49C2960,0,3040,0,3120,8.2C3200,16,3280,33,3360,73.5C3440,114,3520,180,3600,228.7C3680,278,3760,310,3840,285.8C3920,261,4000,180,4080,138.8C4160,98,4240,98,4320,114.3C4400,131,4480,163,4560,220.5C4640,278,4720,359,4800,334.8C4880,310,4960,180,5040,163.3C5120,147,5200,245,5280,236.8C5360,229,5440,114,5520,65.3C5600,16,5680,33,5720,40.8L5760,49L5760,490L5720,490C5680,490,5600,490,5520,490C5440,490,5360,490,5280,490C5200,490,5120,490,5040,490C4960,490,4880,490,4800,490C4720,490,4640,490,4560,490C4480,490,4400,490,4320,490C4240,490,4160,490,4080,490C4000,490,3920,490,3840,490C3760,490,3680,490,3600,490C3520,490,3440,490,3360,490C3280,490,3200,490,3120,490C3040,490,2960,490,2880,490C2800,490,2720,490,2640,490C2560,490,2480,490,2400,490C2320,490,2240,490,2160,490C2080,490,2000,490,1920,490C1840,490,1760,490,1680,490C1600,490,1520,490,1440,490C1360,490,1280,490,1200,490C1120,490,1040,490,960,490C880,490,800,490,720,490C640,490,560,490,480,490C400,490,320,490,240,490C160,490,80,490,40,490L0,490Z"/></svg>